<?xml version="1.0" standalone="no"?>
<!DOCTYPE svg PUBLIC "-//W3C//DTD SVG 20010904//EN"
 "http://www.w3.org/TR/2001/REC-SVG-20010904/DTD/svg10.dtd">
<svg version="1.0" xmlns="http://www.w3.org/2000/svg"
 width="417.000000pt" height="417.000000pt" viewBox="0 0 417.000000 417.000000"
 preserveAspectRatio="xMidYMid meet">
<metadata>
Created by potrace 1.11, written by Peter Selinger 2001-2013
</metadata>
<g transform="translate(0.000000,417.000000) scale(0.100000,-0.100000)"
fill="#000000" stroke="none">
<path d="M1010 3725 c-289 -59 -498 -280 -540 -570 -8 -57 -10 -380 -8 -1120
l3 -1040 27 -80 c88 -256 256 -414 495 -469 64 -14 188 -16 1136 -16 1019 0
1067 1 1139 19 174 45 326 156 406 296 42 74 73 150 87 210 22 92 22 2184 0
2270 -55 219 -228 405 -446 481 l-84 29 -1075 2 c-859 1 -1088 -1 -1140 -12z
m1357 -340 c170 -32 343 -103 488 -200 103 -68 184 -142 169 -152 -144 -102
-544 -400 -544 -405 0 -5 76 -8 168 -8 l169 0 22 85 c24 89 71 166 164 270
l45 50 37 -35 c135 -129 265 -368 321 -592 35 -140 44 -367 20 -518 -43 -273
-174 -527 -372 -726 -174 -174 -379 -288 -633 -352 -95 -24 -125 -26 -291 -27
-144 0 -204 4 -270 19 -260 57 -482 177 -665 361 -55 55 -125 136 -155 180
-29 44 -57 82 -60 85 -16 13 -62 103 -95 188 -136 354 -118 738 51 1075 20 39
42 76 49 82 7 5 36 45 65 88 29 42 88 113 131 157 218 221 489 352 819 394 65
8 284 -3 367 -19z"/>
<path d="M1847 2913 c-10 -18 -208 -835 -204 -840 3 -2 113 74 244 171 l239
175 24 100 c23 97 25 101 51 101 37 0 89 -11 89 -19 0 -4 -23 -33 -52 -65 -28
-32 -45 -57 -37 -55 20 5 588 422 589 432 0 4 -211 7 -469 7 -259 0 -472 -3
-474 -7z"/>
<path d="M1713 2069 c-211 -154 -383 -285 -383 -291 0 -6 6 -8 13 -5 130 58
187 72 212 53 17 -12 16 -23 -27 -194 -25 -100 -43 -184 -40 -187 3 -3 32 -5
64 -5 l59 0 234 171 c129 95 232 175 230 179 -3 4 -25 0 -49 -8 -25 -9 -48
-14 -51 -10 -4 4 6 61 22 127 l28 121 292 0 292 0 10 38 c29 111 61 242 61
251 0 8 -91 11 -289 11 -247 0 -290 2 -293 15 -2 10 -129 -78 -385 -266z"/>
<path d="M1598 1383 c-306 -225 -399 -309 -185 -166 130 87 316 182 410 208
l64 19 17 76 c18 86 19 90 9 90 -5 0 -146 -102 -315 -227z"/>
</g>
</svg>
